<svg id="Layer_1" data-name="Layer 1" xmlns="http://www.w3.org/2000/svg" viewBox="0 0 512 512"><defs><style>.cls-1{fill:#74c666;}.cls-2{fill:#54af47;}.cls-3{fill:#ffc84d;}.cls-4{fill:#f4536a;}.cls-5{fill:#6b287c;}</style></defs><title>wreath-filled</title><path class="cls-1" d="M495.45,250.58c-22.8-29.91-28.87-58.41-18.82-93.21-32-17-47.84-40.38-51.32-76.11-35.73-3.48-59.07-19.34-76.11-51.32-34.8,10-63.29,4-93.21-18.82C226.09,33.93,197.59,40,162.79,29.94c-17,32-40.38,47.84-76.11,51.32C83.2,117,67.34,140.33,35.36,157.37c10,34.8,4,63.29-18.82,93.21,22.8,29.91,28.87,58.41,18.82,93.21,32,17,47.84,40.38,51.32,76.11,35.73,3.48,59.07,19.34,76.11,51.32,34.8-10,63.29-4,93.21,18.82,29.91-22.8,58.41-28.87,93.21-18.82,17-32,40.38-47.84,76.11-51.32,3.48-35.73,19.34-59.07,51.32-76.11C466.59,309,472.65,280.49,495.45,250.58ZM320.31,314.88C295.95,318,277,326.5,256,341.52c-21-15-39.95-23.52-64.31-26.64-3.12-24.36-11.62-43.34-26.64-64.31,15-21,23.52-39.95,26.64-64.31,24.36-3.12,43.34-11.62,64.31-26.64,21,15,39.95,23.52,64.31,26.64,3.12,24.36,11.62,43.34,26.64,64.31C331.92,271.54,323.43,290.52,320.31,314.88Z"/><path class="cls-2" d="M495.45,250.58c-22.8-29.91-28.87-58.41-18.82-93.21-32-17-47.84-40.38-51.32-76.11-35.73-3.48-59.07-19.34-76.11-51.32-34.8,10-63.29,4-93.21-18.82-11.14,8.49-22.09,14.66-33.23,18.54,18.78,6.54,38.14,6.59,60,.28,17,32,40.38,47.84,76.11,51.32,3.48,35.73,19.34,59.07,51.32,76.11-10,34.8-4,63.29,18.82,93.21-22.8,29.91-28.87,58.41-18.82,93.21-32,17-47.84,40.38-51.32,76.11-35.73,3.48-59.07,19.34-76.11,51.32-21.84-6.31-41.19-6.26-60,.28,11.15,3.88,22.09,10,33.23,18.54,29.91-22.8,58.41-28.87,93.21-18.82,17-32,40.38-47.84,76.11-51.32,3.48-35.73,19.34-59.07,51.32-76.11C466.59,309,472.65,280.49,495.45,250.58Z"/><circle class="cls-3" cx="256" cy="94.83" r="22.25"/><circle class="cls-3" cx="389.49" cy="172.7" r="22.25"/><circle class="cls-3" cx="122.51" cy="172.7" r="22.25"/><path class="cls-4" d="M134.51,500.88c54,0,121.49-61.18,121.49-61.18s-67.5-61.18-121.49-61.18C134.51,378.51,107.51,439.69,134.51,500.88Z"/><path class="cls-4" d="M377.49,500.88c-54,0-121.49-61.18-121.49-61.18s67.5-61.18,121.49-61.18C377.49,378.51,404.49,439.69,377.49,500.88Z"/><rect class="cls-4" x="222.63" y="406.32" width="66.75" height="66.75" rx="2.46" ry="2.46"/><circle class="cls-3" cx="395.06" cy="311.76" r="22.25"/><circle class="cls-3" cx="116.94" cy="311.76" r="22.25"/><path class="cls-5" d="M322.92,45.65a119.67,119.67,0,0,0,20.84-2.86,113.86,113.86,0,0,0,14.58,19.27,11.12,11.12,0,0,0,16.13-15.32A100.22,100.22,0,0,1,359,24.68a11.09,11.09,0,0,0-12.86-5.45,105.34,105.34,0,0,1-24.26,4.2A11.13,11.13,0,0,0,311.3,35,11.28,11.28,0,0,0,322.92,45.65Z"/><path class="cls-5" d="M33.13,289.79A11.14,11.14,0,0,0,43.4,274.41a128.67,128.67,0,0,0-13.11-23.83,133.57,133.57,0,0,0,10.64-18.22,11.12,11.12,0,0,0-20.07-9.6A120.66,120.66,0,0,1,7.7,243.83a11.12,11.12,0,0,0,0,13.49,114.23,114.23,0,0,1,15.14,25.59A11.13,11.13,0,0,0,33.13,289.79Z"/><path class="cls-5" d="M28.84,189.48a11.13,11.13,0,0,0,10.89,11.36H40A11.13,11.13,0,0,0,51.09,190a112.93,112.93,0,0,0-2.86-27.15c27.65-16.94,43.24-40,48.38-71.62,31.61-5.14,54.68-20.72,71.62-48.38C200.06,50,227.71,44.33,256,24.86A128.72,128.72,0,0,0,279.83,38a11.12,11.12,0,0,0,8.51-20.55A114.23,114.23,0,0,1,262.75,2.28a11.12,11.12,0,0,0-13.49,0c-27.38,20.87-52.33,25.95-83.39,17A11.11,11.11,0,0,0,153,24.7C137.65,53.45,117.51,67.06,85.6,70.19a11.12,11.12,0,0,0-10,10c-3.13,31.91-16.74,52.05-45.49,67.36a11.12,11.12,0,0,0-5.46,12.9A96.6,96.6,0,0,1,28.84,189.48Z"/><path class="cls-5" d="M435.59,381.53a11.13,11.13,0,0,0-14.38,6.39,110,110,0,0,0-5.84,22,116.68,116.68,0,0,0-16.87,4c-3.55-23.09-10.26-38.66-10.84-40a11.13,11.13,0,0,0-10.18-6.63c-29.71,0-62.29,16.33-87.29,32.52a24.66,24.66,0,0,0-14.51-4.71H236.3a24.66,24.66,0,0,0-14.51,4.71c-25-16.18-57.58-32.52-87.29-32.52A11.13,11.13,0,0,0,124.33,374c-.57,1.3-7.29,16.88-10.84,40a116.57,116.57,0,0,0-16.88-4c-5.14-31.62-20.73-54.69-48.39-71.63a119.74,119.74,0,0,0,2.86-20.84,11.13,11.13,0,0,0-10.61-11.62H40a11.13,11.13,0,0,0-11.1,10.62,105.33,105.33,0,0,1-4.2,24.26,11.12,11.12,0,0,0,5.47,12.87C58.88,368.92,72.48,389.07,75.61,421a11.12,11.12,0,0,0,10,10,97.18,97.18,0,0,1,25.81,5.81c-.6,20.68,2.32,44.55,12.92,68.59A11.13,11.13,0,0,0,134.51,512c28.34,0,59.29-14.86,83.78-30.28,10.29,3.45,20.45,9.13,31,17.15a11.12,11.12,0,0,0,13.48,0c10.53-8,20.69-13.69,31-17.15C318.21,497.15,349.16,512,377.49,512a11.13,11.13,0,0,0,10.18-6.63c10.61-24,13.52-47.91,12.92-68.59A97.15,97.15,0,0,1,426.4,431a11.11,11.11,0,0,0,10-10A94.49,94.49,0,0,1,442,395.9,11.14,11.14,0,0,0,435.59,381.53ZM233.75,420a2.55,2.55,0,0,1,2.55-2.55h39.4a2.55,2.55,0,0,1,2.55,2.55v39.4a2.55,2.55,0,0,1-2.55,2.55H236.3a2.55,2.55,0,0,1-2.55-2.55Zm-91.66-29.92c23.33,2.58,49.08,16.29,69.41,29.71,0,.07,0,.14,0,.21v8.58H183.69a11.12,11.12,0,1,0,0,22.25H211.5v8.58c0,.07,0,.14,0,.21-20.41,13.48-46.27,27.23-69.67,29.74C126.35,447.45,136.76,406.17,142.09,390.07Zm228.07,99.28c-23.4-2.51-49.27-16.27-69.67-29.74,0-.07,0-.14,0-.21v-8.58h27.81a11.12,11.12,0,1,0,0-22.25H300.5V420c0-.07,0-.14,0-.21,20.34-13.43,46.1-27.14,69.44-29.72C375.29,406.13,385.75,447.27,370.17,489.35Z"/><path class="cls-5" d="M504.3,243.83c-20.87-27.39-25.94-52.33-17-83.39a11.13,11.13,0,0,0-5.46-12.91c-28.76-15.31-42.36-35.45-45.49-67.36a11.12,11.12,0,0,0-9.94-10A98.43,98.43,0,0,1,402.5,65a11.12,11.12,0,0,0-7.65,20.89,110.94,110.94,0,0,0,20.54,5.25c5.14,31.62,20.72,54.69,48.38,71.63-7.18,31.84-1.52,59.48,17.94,87.77a133.62,133.62,0,0,0-10.64,18.23,11.12,11.12,0,1,0,20.07,9.6,120.66,120.66,0,0,1,13.17-21.08A11.12,11.12,0,0,0,504.3,243.83Z"/><path class="cls-5" d="M483.16,311.67a11.13,11.13,0,1,0-22.25-.48,112.91,112.91,0,0,0,2.86,27.15A115.91,115.91,0,0,0,446,351.6,11.13,11.13,0,0,0,461,368a101.46,101.46,0,0,1,20.93-14.42,11.12,11.12,0,0,0,5.45-12.88A96.61,96.61,0,0,1,483.16,311.67Z"/><path class="cls-5" d="M289.37,94.83A33.37,33.37,0,1,0,256,128.21,33.41,33.41,0,0,0,289.37,94.83Zm-44.5,0A11.12,11.12,0,1,1,256,106,11.14,11.14,0,0,1,244.88,94.83Z"/><path class="cls-5" d="M389.49,139.33a33.37,33.37,0,1,0,33.37,33.37A33.41,33.41,0,0,0,389.49,139.33Zm0,44.5a11.12,11.12,0,1,1,11.12-11.12A11.14,11.14,0,0,1,389.49,183.83Z"/><path class="cls-5" d="M122.51,139.33a33.37,33.37,0,1,0,33.37,33.37A33.41,33.41,0,0,0,122.51,139.33Zm0,44.5a11.12,11.12,0,1,1,11.12-11.12A11.14,11.14,0,0,1,122.51,183.83Z"/><path class="cls-5" d="M361.68,311.76a33.37,33.37,0,1,0,33.37-33.37A33.41,33.41,0,0,0,361.68,311.76Zm44.5,0a11.12,11.12,0,1,1-11.12-11.12A11.14,11.14,0,0,1,406.18,311.76Z"/><path class="cls-5" d="M116.94,345.13a33.37,33.37,0,1,0-33.37-33.37A33.41,33.41,0,0,0,116.94,345.13Zm0-44.5a11.12,11.12,0,1,1-11.12,11.12A11.14,11.14,0,0,1,116.94,300.64Z"/><circle class="cls-5" cx="178.13" cy="117.08" r="11.12"/><circle class="cls-5" cx="411.74" cy="239.45" r="11.12"/><circle class="cls-5" cx="100.26" cy="239.45" r="11.12"/><circle class="cls-5" cx="333.87" cy="117.08" r="11.12"/><path class="cls-5" d="M180.66,316.3a11.11,11.11,0,0,0,9.62,9.62c21.47,2.75,38.64,9.89,59.25,24.64a11.12,11.12,0,0,0,12.95,0c20.61-14.75,37.77-21.9,59.25-24.64a11.11,11.11,0,0,0,9.62-9.62c2.75-21.47,9.89-38.64,24.64-59.25a11.11,11.11,0,0,0,0-12.95c-14.75-20.61-21.9-37.77-24.64-59.25a11.11,11.11,0,0,0-9.62-9.62c-21.47-2.75-38.64-9.89-59.25-24.64a11.13,11.13,0,0,0-12.95,0c-20.61,14.75-37.77,21.9-59.25,24.64a11.11,11.11,0,0,0-9.62,9.62c-2.75,21.47-9.89,38.64-24.64,59.25a11.11,11.11,0,0,0,0,12.95C170.77,277.66,177.91,294.82,180.66,316.3ZM201.43,196c19.23-3.54,36.23-10.66,54.57-22.85,18.34,12.19,35.33,19.32,54.57,22.85,3.54,19.23,10.66,36.23,22.85,54.57-12.19,18.34-19.32,35.33-22.85,54.57C291.33,308.68,274.34,315.81,256,328c-18.34-12.19-35.33-19.32-54.57-22.85-3.54-19.23-10.66-36.23-22.85-54.57C190.77,232.24,197.9,215.24,201.43,196Z"/></svg>