<svg id="Layer_1" data-name="Layer 1" xmlns="http://www.w3.org/2000/svg" viewBox="0 0 512 512"><defs><style>.cls-1{fill:#bfc9d1;}.cls-2{fill:#f4607f;}.cls-3{fill:#fff;}.cls-4{opacity:0.1;}.cls-5{fill:#231f20;}</style></defs><title>heart-arrow-flat</title><path class="cls-1" d="M512,121.6V83.2H467.2V38.4H428.8V93.26L36.32,412.16,25.48,401.32A14.92,14.92,0,0,0,0,411.87v46.8A14.92,14.92,0,0,0,14.92,473.6h46.8a14.92,14.92,0,0,0,10.55-25.48l-8.67-8.67L454.81,121.6Z"/><path class="cls-2" d="M428.8,214.34a124.7,124.7,0,0,1-36,88.13l-.19.19L230.4,462.14,68.29,302.66C20.1,253.82,20.1,174.78,68,126.27A122.2,122.2,0,0,1,230.4,115.39a122.2,122.2,0,0,1,162.37,10.88A124.44,124.44,0,0,1,428.8,214.34Z"/><path class="cls-3" d="M364.8,217.6H326.4a19.22,19.22,0,0,0-19.2-19.2V160A57.66,57.66,0,0,1,364.8,217.6Z"/><g class="cls-4"><path class="cls-5" d="M428.8,214.34a124.7,124.7,0,0,1-36,88.13l-.19.19L230.4,462.14V115.39a122.2,122.2,0,0,1,162.37,10.88A124.44,124.44,0,0,1,428.8,214.34Z"/></g></svg>