<svg id="Layer_1" data-name="Layer 1" xmlns="http://www.w3.org/2000/svg" viewBox="0 0 512 512"><defs><style>.cls-1{fill:#6d4135;}.cls-2{fill:#ffd38d;}.cls-3{opacity:0.1;}</style></defs><title>podcast-microphone-flat</title><path class="cls-1" d="M448,234.67a21.33,21.33,0,1,0-42.67,0c0,75.08-55.75,137.22-128,147.63V320a21.33,21.33,0,0,0-42.67,0v62.3c-72.25-10.41-128-72.55-128-147.63a21.33,21.33,0,1,0-42.67,0c0,98.65,74.81,180.09,170.67,190.74v43.92H192A21.33,21.33,0,0,0,192,512H320a21.33,21.33,0,0,0,0-42.67H277.33V425.41C373.19,414.75,448,333.31,448,234.67Z"/><path class="cls-2" d="M362.67,106.67v128a106.67,106.67,0,0,1-213.33,0v-128a106.67,106.67,0,0,1,213.33,0Z"/><g class="cls-3"><path d="M362.67,106.67v128A106.84,106.84,0,0,1,256,341.33V0A106.84,106.84,0,0,1,362.67,106.67Z"/></g></svg>