<svg id="Layer_1" data-name="Layer 1" xmlns="http://www.w3.org/2000/svg" viewBox="0 0 512 512"><title>dribbble-flat</title><path d="M0,256C0,114.62,114.62,0,256,0S512,114.63,512,256,397.37,512,256,512,0,397.38,0,256Z" fill="#ff5b9a"/><path d="M256,153.17A102.83,102.83,0,1,0,358.83,256,103,103,0,0,0,256,153.17Zm66.37,50.18a84.47,84.47,0,0,1,18.23,47.57c-21.93-4.33-41.18-4.08-57.84-1q-3.17-7.43-6.44-14.13C295.39,227.58,310.91,216.71,322.37,203.35Zm-12.74-12.91c-10.91,13.25-25.69,22.64-41.69,29.26-1.79-3.2-3.56-6.21-5.28-9.07a289.32,289.32,0,0,0-26.51-37,84.72,84.72,0,0,1,73.48,16.83Zm-91.69-10.15a266.9,266.9,0,0,1,32.59,45.45c-29.83,8.63-60.58,9.53-76.64,9.27A85.07,85.07,0,0,1,217.94,180.29ZM171.26,256c0-1,0-2,0-2.91,2.27.05,4.86.08,7.76.08a305.89,305.89,0,0,0,49.9-4A227.84,227.84,0,0,0,259.22,242c2,4,3.89,8.06,5.78,12.35a131.26,131.26,0,0,0-41.33,22.53,148.88,148.88,0,0,0-31.4,34.91A84.56,84.56,0,0,1,171.26,256Zm34.54,68.22A131.37,131.37,0,0,1,235,291a113.15,113.15,0,0,1,36.71-19.9A280.58,280.58,0,0,1,287,334.88a84.67,84.67,0,0,1-81.23-10.65Zm98.27,1.51A301.28,301.28,0,0,0,289.45,267c15.66-2.33,32.45-1.59,50.26,2.26A84.76,84.76,0,0,1,304.07,325.74Z" fill="#fff"/></svg>