<svg id="Layer_1" data-name="Layer 1" xmlns="http://www.w3.org/2000/svg" viewBox="0 0 512 512"><defs><style>.cls-1{fill:#f4536a;}.cls-2{fill:#ffc84d;}.cls-3{fill:#74c666;}.cls-4{fill:#f0f7ff;}.cls-5{fill:#6b287c;}</style></defs><title>garlands-filled</title><path class="cls-1" d="M61.94,160.67q12,15.56,24.64,30.86L100.74,91.6q-26.63-3.85-53.11-9l-19,99.11Q45.58,171.41,61.94,160.67Z"/><path class="cls-2" d="M132.74,95.74q10.38,52.18,23.74,104.17,21.7-49,40.49-98.75Q164.81,99.41,132.74,95.74Z"/><path class="cls-3" d="M256,177.05q14.32,13.33,29.28,26.3-1.22-50.46-2.45-100.92-26.83.66-53.67,0-1.22,50.46-2.45,100.92Q241.68,190.39,256,177.05Z"/><path class="cls-4" d="M315,101.16q18.79,49.72,40.49,98.75,13.36-52,23.74-104.17Q347.21,99.4,315,101.16Z"/><path class="cls-2" d="M450.06,160.67q16.36,10.74,33.31,21l-19-99.11q-26.47,5.18-53.11,9l14.16,99.94Q438.08,176.23,450.06,160.67Z"/><path class="cls-4" d="M158.71,399.16q-15.38,12.08-31.38,23.75l10.75-100.37q26.72,2.92,53.53,4.51l-5.87,100.78Q171.9,413.65,158.71,399.16Z"/><path class="cls-3" d="M106.06,318.56q-22.85,48-48.57,95-9.07-52.92-15.16-105.82Q74.07,314.1,106.06,318.56Z"/><path class="cls-2" d="M353.29,399.16q-13.18,14.49-27,28.68l-5.87-100.78q26.8-1.59,53.53-4.51l10.75,100.37Q368.67,411.25,353.29,399.16Z"/><path class="cls-1" d="M288.2,328.49Q273.58,379.61,256,430.3q-17.58-50.67-32.2-101.81Q256,329.44,288.2,328.49Z"/><path class="cls-1" d="M469.66,307.72q-6.09,52.88-15.16,105.82-25.71-47-48.57-95Q437.91,314.09,469.66,307.72Z"/><path class="cls-5" d="M99.13,50.21a10.66,10.66,0,0,0,15.08,0l8.46-8.46,8.46,8.46a10.67,10.67,0,1,0,15.08-15.08l-8.46-8.46,8.46-8.46A10.67,10.67,0,1,0,131.13,3.13l-8.46,8.46-8.46-8.46A10.67,10.67,0,0,0,99.13,18.21l8.46,8.46-8.46,8.46A10.66,10.66,0,0,0,99.13,50.21Z"/><circle class="cls-5" cx="208" cy="48" r="10.67"/><circle class="cls-5" cx="90.67" cy="240" r="10.67"/><path class="cls-5" d="M444.87,221.79a10.66,10.66,0,0,0-15.08,0l-8.46,8.46-8.46-8.46a10.67,10.67,0,0,0-15.08,15.08l8.46,8.46-8.46,8.46a10.67,10.67,0,0,0,15.08,15.08l8.46-8.46,8.46,8.46a10.67,10.67,0,0,0,15.08-15.08l-8.46-8.46,8.46-8.46A10.66,10.66,0,0,0,444.87,221.79Z"/><path class="cls-5" d="M215.54,461.79a10.66,10.66,0,0,0-15.08,0L192,470.25l-8.46-8.46a10.67,10.67,0,1,0-15.08,15.08l8.46,8.46-8.46,8.46a10.67,10.67,0,0,0,15.08,15.08l8.46-8.46,8.46,8.46a10.67,10.67,0,0,0,15.08-15.08l-8.46-8.46,8.46-8.46A10.66,10.66,0,0,0,215.54,461.79Z"/><circle class="cls-5" cx="432" cy="10.67" r="10.67"/><path class="cls-5" d="M154.67,256a26.67,26.67,0,1,0,26.67-26.67A26.7,26.7,0,0,0,154.67,256Zm32,0a5.33,5.33,0,1,1-5.33-5.33A5.34,5.34,0,0,1,186.67,256Z"/><path class="cls-5" d="M426.66,458.67a26.67,26.67,0,1,0,26.67,26.67A26.7,26.7,0,0,0,426.66,458.67Zm0,32a5.33,5.33,0,1,1,5.33-5.33A5.34,5.34,0,0,1,426.66,490.67Z"/><circle class="cls-5" cx="298.67" cy="272" r="10.67"/><circle class="cls-5" cx="37.34" cy="464" r="10.67"/><path class="cls-5" d="M325.33,69.33a26.67,26.67,0,1,0-26.67-26.67A26.7,26.7,0,0,0,325.33,69.33Zm0-32A5.33,5.33,0,1,1,320,42.67,5.34,5.34,0,0,1,325.33,37.33Z"/><circle class="cls-5" cx="309.33" cy="490.67" r="10.67"/><path class="cls-5" d="M8.26,85.06q13.41,3.11,26.91,5.86l-17,88.75a10.67,10.67,0,0,0,16,11.14c8.51-5.15,17-10.46,25.38-15.85,6.18,7.88,12.49,15.71,18.83,23.38A10.67,10.67,0,0,0,97.14,193l12.68-89.49q7,.93,14,1.77c6.59,32.39,14.09,65.07,22.36,97.25a10.67,10.67,0,0,0,9.45,8c.3,0,.59,0,.89,0a10.67,10.67,0,0,0,9.75-6.35c13.42-30.31,26.18-61.29,38-92.19q7,.33,14,.56l-2.19,90.5a10.67,10.67,0,0,0,17.65,8.32c7.48-6.48,15-13.14,22.3-19.85,7.39,6.75,14.86,13.41,22.3,19.85a10.67,10.67,0,0,0,17.65-8.32l-2.19-90.5q7-.24,14-.56c11.82,30.9,24.59,61.88,38,92.19a10.67,10.67,0,0,0,9.75,6.35c.3,0,.59,0,.89,0a10.67,10.67,0,0,0,9.45-8c8.25-32.1,15.75-64.78,22.36-97.25q7-.84,14-1.77L414.86,193a10.67,10.67,0,0,0,18.78,5.31c6.34-7.66,12.65-15.49,18.83-23.37,8.37,5.39,16.88,10.7,25.38,15.85a10.67,10.67,0,0,0,16-11.14l-17-88.75q13.49-2.77,26.91-5.86a10.67,10.67,0,0,0-4.82-20.78,1080.67,1080.67,0,0,1-485.84,0A10.67,10.67,0,0,0,8.26,85.06Zm71.2,80.72q-4.58-5.79-9.06-11.61a10.67,10.67,0,0,0-14.31-2.41q-6.14,4-12.4,8L56.1,95c10.82,2,21.72,3.86,32.59,5.54Zm79.78.94c-4.69-19.57-9.08-39.23-13.14-58.81,11.89,1.2,23.83,2.21,35.73,3C174.62,129.56,167.06,148.22,159.24,166.71Zm193.53,0c-7.83-18.5-15.38-37.16-22.59-55.8,11.9-.81,23.84-1.82,35.73-3C361.84,127.51,357.45,147.17,352.76,166.72Zm103.15-15a10.66,10.66,0,0,0-14.31,2.41q-4.48,5.81-9.06,11.61l-9.23-65.19C434.18,98.9,445.08,97,455.9,95l12.41,64.73Q462.06,155.79,455.91,151.76ZM263.27,169.24a10.67,10.67,0,0,0-14.54,0q-5.32,5-10.76,9.88l1.59-65.82c10.94.17,21.93.17,32.86,0L274,179.13Q268.61,174.22,263.27,169.24Z"/><path class="cls-5" d="M498.92,290.48a1080.67,1080.67,0,0,1-485.84,0,10.67,10.67,0,0,0-4.82,20.78c8.11,1.88,16.24,3.64,24.39,5.33,3.92,32.87,8.73,66.05,14.33,98.75a10.67,10.67,0,0,0,19.87,3.32c15.89-29.05,31.17-58.81,45.5-88.58q7,.92,14,1.74l-9.63,89.95a10.66,10.66,0,0,0,16.89,9.75c8-5.81,16-11.81,23.89-17.91,6.77,7.31,13.68,14.57,20.61,21.67a10.67,10.67,0,0,0,18.28-6.83l5.26-90.35q7,.34,14,.6c9.23,31.78,19.39,63.73,30.27,95.09a10.67,10.67,0,0,0,20.16,0c10.88-31.36,21-63.31,30.27-95.09q7-.25,14-.6l5.26,90.35a10.67,10.67,0,0,0,18.28,6.83c6.93-7.1,13.84-14.36,20.61-21.67,7.91,6.1,15.92,12.1,23.89,17.91a10.66,10.66,0,0,0,16.89-9.75l-9.63-89.95q7-.83,14-1.74c14.33,29.77,29.61,59.53,45.5,88.58A10.67,10.67,0,0,0,465,415.34c5.6-32.7,10.41-65.88,14.33-98.75,8.15-1.69,16.28-3.45,24.39-5.33a10.67,10.67,0,0,0-4.82-20.78ZM63,380.78c-3.08-19.91-5.85-39.91-8.3-59.81,11.8,2.2,23.66,4.22,35.5,6C81.41,345,72.32,363,63,380.78Zm113.56,22q-5-5.36-9.92-10.76a10.66,10.66,0,0,0-14.48-1.21q-5.75,4.52-11.58,9l7-65.49c10.91,1.08,21.88,2,32.79,2.77Zm183.35-12A10.65,10.65,0,0,0,345.39,392q-4.9,5.38-9.92,10.76L331.65,337c10.91-.76,21.88-1.68,32.79-2.77l7,65.49Q365.63,395.29,359.87,390.77Zm89.17-10C439.68,363,430.59,345,421.84,327c11.86-1.82,23.73-3.83,35.5-6C454.89,340.88,452.12,360.87,449,380.78ZM256,397c-6.28-19.09-12.26-38.31-17.91-57.48,11.93.2,23.89.2,35.81,0C268.26,358.66,262.28,377.88,256,397Z"/></svg>