<svg id="Layer_1" data-name="Layer 1" xmlns="http://www.w3.org/2000/svg" viewBox="0 0 512 512"><defs><style>.cls-1{fill:#842e20;}</style></defs><title>steam-iron-outline</title><path class="cls-1" d="M345.6,403.2H332.8a12.8,12.8,0,1,0,0,25.6h12.8a12.8,12.8,0,1,0,0-25.6Z"/><path class="cls-1" d="M510.77,298.39,486.58,181.73c-7.21-34.84-39-60.12-75.64-60.12H256v-6.4a32,32,0,0,0-32-32H198.4a32,32,0,0,0-32,32v16.42c-25.43,12-51.88,34.93-79.08,68.59a12.8,12.8,0,0,0,19.91,16.09c27.22-33.69,53.38-55.53,76.94-64.47h0a65.41,65.41,0,0,1,23.18-4.62H410.94c24.54,0,45.81,16.7,50.57,39.72L485.7,303.58c4.38,21.23-10.62,40.34-27.61,48.42H26.81a66,66,0,0,1,5.86-17.77c2.64-5.2,5.89-11.47,9.72-18.42a12.8,12.8,0,1,0-22.44-12.34c-4,7.26-7.38,13.79-10.09,19.16A95.54,95.54,0,0,0,0,364.8v20.49c0,24,20.41,43.51,45.51,43.51H281.6a12.8,12.8,0,0,0,0-25.6H45.51c-11,0-19.91-8-19.91-17.91V377.6H448v7.69c0,9.87-8.93,17.91-19.91,17.91H396.8a12.8,12.8,0,0,0,0,25.6h31.29c25.09,0,45.51-19.52,45.51-43.51V372.73C500.92,357.51,516.67,327,510.77,298.39ZM192,123.09V115.2a6.49,6.49,0,0,1,6.4-6.4H224a6.49,6.49,0,0,1,6.4,6.4v6.4h-23A83.78,83.78,0,0,0,192,123.09Z"/><path class="cls-1" d="M50.13,276.34a12.8,12.8,0,0,0,17.63-4.11c3.18-5.11,6.49-10.29,10-15.47a12.8,12.8,0,0,0-21.21-14.32c-3.68,5.44-7.15,10.89-10.51,16.27A12.8,12.8,0,0,0,50.13,276.34Z"/><circle class="cls-1" cx="281.6" cy="313.6" r="12.8"/><circle class="cls-1" cx="332.8" cy="313.6" r="12.8"/><circle class="cls-1" cx="384" cy="313.6" r="12.8"/><path class="cls-1" d="M428,260.34a32.27,32.27,0,0,0,6.32-27.56l-7.61-32.17c-3.88-16.38-19.73-27.82-38.54-27.82H332.74c-37.17,0-71.88,17.07-90.6,44.56l-6.53,9.58a28.86,28.86,0,0,0-1.79,30.18c5.89,11.15,18.12,18.07,31.91,18.07H395.79C408.61,275.2,420.65,269.64,428,260.34Zm-20.08-15.88c-2.51,3.17-7.16,5.14-12.14,5.14H265.74c-4.79,0-8.11-2.23-9.27-4.44a3.29,3.29,0,0,1,.32-3.81l6.52-9.58c14-20.58,40.62-33.37,69.44-33.37h55.44c6.56,0,12.56,3.57,13.63,8.12l7.61,32.17A6.57,6.57,0,0,1,407.93,244.46Z"/></svg>