<svg id="Layer_1" data-name="Layer 1" xmlns="http://www.w3.org/2000/svg" viewBox="0 0 512 512"><defs><style>.cls-1{fill:#eadbc7;}.cls-2{fill:#495875;}.cls-3{fill:#2686ef;}</style></defs><title>gesture-43-filled</title><path class="cls-1" d="M190.47,352.12l38.82-118.81a20,20,0,0,0-14.69-25.74c-10.19-2.29-20.35,4.21-23.59,14.14l-21.47,65.72a20,20,0,0,0-14.69-25.74c-10.19-2.29-20.35,4.21-23.59,14.14L125.3,294a20,20,0,0,0-14.69-25.74C100.42,266,90.26,272.48,87,282.41l-4.39,13.44a20,20,0,0,0-14.69-25.74c-10.19-2.29-20.35,4.21-23.59,14.14L32,321.9a82.71,82.71,0,0,0-4,28.62l.33,9.25a110.85,110.85,0,0,1-5.41,38.35L13.84,425.9l137.82,45,4.77-14.59c4.9-15,12.41-21.87,29.63-34.58,0,0,77.16-66.91,10.63-88.65"/><path class="cls-1" d="M321.53,240.52,282.71,121.72A20,20,0,0,1,297.4,96c10.19-2.29,20.35,4.21,23.59,14.14l21.47,65.72a20,20,0,0,1,14.69-25.74c10.19-2.29,20.35,4.21,23.59,14.14l5.94,18.19a20,20,0,0,1,14.69-25.74c10.19-2.29,20.35,4.21,23.59,14.14l4.39,13.44a20,20,0,0,1,14.69-25.74c10.19-2.29,20.35,4.21,23.59,14.14L480,210.3a82.71,82.71,0,0,1,4,28.62l-.33,9.25a110.85,110.85,0,0,0,5.41,38.35l9.08,27.79-137.82,45-4.77-14.59c-4.9-15-12.41-21.87-29.63-34.58,0,0-77.16-66.91-10.63-88.65"/><path class="cls-2" d="M9.54,439.05l137.82,45a13.82,13.82,0,0,0,17.45-8.86l4.77-14.59c3.59-11,8.49-15.78,24.69-27.74.29-.22.57-.45.85-.68,5-4.34,48.69-43.4,41.66-78.23-1.78-8.82-7.36-20.18-23-28.61l28.68-87.74a33.83,33.83,0,0,0-24.82-43.55c-16.84-3.8-34.26,6.49-39.77,23.34l-11.14,34.1a34,34,0,0,0-8.84-3.33c-12.33-2.78-24.95,2-33,11.34a34.09,34.09,0,0,0-11.23-4.76A33.68,33.68,0,0,0,84,262.68,34,34,0,0,0,71,256.61c-16.75-3.78-34.26,6.47-39.78,23.34L18.88,317.6A96.35,96.35,0,0,0,14.17,351l.33,9.24a96.68,96.68,0,0,1-4.74,33.57L.68,421.6a13.85,13.85,0,0,0,8.86,17.45Zm26.53-36.64a124.52,124.52,0,0,0,6.09-43.14L41.83,350A68.6,68.6,0,0,1,45.2,326.2l12.3-37.66c1.11-3.39,4.44-5.6,7.41-4.93a6.17,6.17,0,0,1,4.57,7.94l-3.11,9.51a13.84,13.84,0,1,0,26.31,8.59l3.11-9.51h0l4.39-13.42c1.11-3.38,4.38-5.55,7.41-4.93a6.16,6.16,0,0,1,4.57,7.93v.06L109,299.23a13.84,13.84,0,1,0,26.31,8.58l3.07-9.42,0-.07s0,0,0-.06l5.93-18.14c1.11-3.38,4.43-5.59,7.4-4.93a6.17,6.17,0,0,1,4.07,3,6.07,6.07,0,0,1,.51,4.94v0l-3.11,9.51a13.84,13.84,0,1,0,26.31,8.59l3.09-9.46v0h0L204.16,226c1.1-3.38,4.39-5.54,7.41-4.93a6.15,6.15,0,0,1,4.07,3,6.08,6.08,0,0,1,.5,5l-32.56,99.66,0,.14,0,.14-6.17,18.87a13.84,13.84,0,0,0,26.31,8.59l1.3-4a12.23,12.23,0,0,1,4.72,7c2.74,13.45-17.51,38.53-32.28,51.51-17,12.55-27.77,21.7-34.1,41.07l-.47,1.44L31.29,417Z"/><path class="cls-2" d="M497.83,239.41A96.39,96.39,0,0,0,493.12,206l-12.3-37.66c-5.51-16.84-23-27.13-39.77-23.34A34,34,0,0,0,428,151.07a33.33,33.33,0,0,0-40.82-3.14c-8.06-9.36-20.73-14.12-33-11.34a34,34,0,0,0-8.84,3.32l-11.14-34.1c-5.51-16.84-23-27.13-39.78-23.34A33.85,33.85,0,0,0,269.55,126l28.68,87.75c-15.64,8.44-21.23,19.79-23,28.62-7,34.83,36.66,73.9,41.66,78.24.28.24.56.47.85.68,16.2,12,21.1,16.75,24.69,27.74l4.77,14.59a13.82,13.82,0,0,0,17.45,8.86l137.82-45A13.85,13.85,0,0,0,511.32,310l-9.08-27.79a96.67,96.67,0,0,1-4.74-33.56ZM369.2,341.88l-.47-1.44c-6.33-19.38-17.13-28.53-34.1-41.07-14.78-13-35-38.07-32.28-51.52a12.23,12.23,0,0,1,4.72-7l1.3,4a13.84,13.84,0,1,0,26.31-8.59l-6.17-18.87,0-.14,0-.13-32.56-99.67a6.08,6.08,0,0,1,.5-5,6.17,6.17,0,0,1,4.07-3c3-.61,6.3,1.55,7.41,4.93l21.47,65.72h0v0l3.09,9.46A13.84,13.84,0,1,0,358.73,181l-3.11-9.51v0a6.07,6.07,0,0,1,.51-4.94,6.15,6.15,0,0,1,4.07-3c3-.68,6.29,1.54,7.4,4.93l5.93,18.14a.2.2,0,0,0,0,.06l0,.08,3.07,9.42A13.84,13.84,0,1,0,403,187.63l-3.09-9.47v0h0a6.08,6.08,0,0,1,.51-4.95,6.15,6.15,0,0,1,4.07-3c3-.67,6.29,1.55,7.4,4.93l4.39,13.43h0l0,.08,3.08,9.43a13.84,13.84,0,0,0,13.15,9.54,13.68,13.68,0,0,0,4.3-.7,13.83,13.83,0,0,0,8.84-17.45L442.55,180l0-.08A6.18,6.18,0,0,1,447.1,172c3-.63,6.3,1.55,7.41,4.93l12.3,37.66a68.61,68.61,0,0,1,3.36,23.83l-.33,9.25a124.51,124.51,0,0,0,6.09,43.14l4.78,14.64Z"/><path class="cls-3" d="M221.41,89.49H206.28a76.1,76.1,0,1,0-74.82,89.95,13.84,13.84,0,0,0,0-27.68,48.43,48.43,0,1,1,46.41-62.27H166.05a13.84,13.84,0,0,0-9.78,23.62l27.68,27.68a13.83,13.83,0,0,0,19.57,0l27.68-27.68a13.84,13.84,0,0,0-9.78-23.62Z"/></svg>