<svg id="Layer_1" data-name="Layer 1" xmlns="http://www.w3.org/2000/svg" viewBox="0 0 512 512"><defs><style>.cls-1{fill:#ffd38d;}.cls-2{fill:#6d4135;}</style></defs><title>trophy-filled</title><path class="cls-1" d="M106.67,21.33H405.33a0,0,0,0,1,0,0V234.67A149.33,149.33,0,0,1,256,384h0A149.33,149.33,0,0,1,106.67,234.67V21.33A0,0,0,0,1,106.67,21.33Z"/><path class="cls-2" d="M512,106.67a21.33,21.33,0,0,0-21.33-21.33h-64v-64A21.33,21.33,0,0,0,405.33,0H106.67A21.33,21.33,0,0,0,85.33,21.33v64h-64A21.33,21.33,0,0,0,0,106.67c0,47.25,18.66,133,86.43,147.28A171,171,0,0,0,234.67,404v65.33H192A21.33,21.33,0,0,0,192,512H320a21.33,21.33,0,0,0,0-42.67H277.33V404A171,171,0,0,0,425.57,253.93C493.33,239.65,512,153.92,512,106.67ZM44.31,128h41v80.54C57.1,194.63,47.55,153.54,44.31,128ZM384,234.67a128,128,0,0,1-256,0v-192H384Zm42.67-26.12V128h41C464.45,153.55,454.9,194.63,426.67,208.54Z"/></svg>