<svg id="Layer_1" data-name="Layer 1" xmlns="http://www.w3.org/2000/svg" viewBox="0 0 512 512"><title>game-development</title><g id="game-development"><g id="label"><path d="M256,512C114.84,512,0,397.16,0,256S114.84,0,256,0,512,114.84,512,256,397.16,512,256,512Zm0-490.54C126.68,21.46,21.46,126.67,21.46,256S126.68,490.54,256,490.54,490.54,385.32,490.54,256,385.33,21.46,256,21.46Z" fill="#34495e"/></g><path id="game-development-2" data-name="game-development" d="M295.59,230.46a2.55,2.55,0,0,1,0,5.1h-7.67a2.55,2.55,0,1,1,0-5.1Zm25.55,0H316a2.55,2.55,0,1,0,0,5.1h5.1a2.55,2.55,0,1,0,0-5.1M307.85,186l-47,47,47,47L306,281.79a69,69,0,1,1,0-97.56ZM249.6,207.46a10.22,10.22,0,1,0-10.22-10.22,10.23,10.23,0,0,0,10.22,10.22m153.47-85.74V340.54a12.89,12.89,0,0,1-12.88,12.88H121.82a12.88,12.88,0,0,1-12.88-12.88V121.71a12.87,12.87,0,0,1,12.88-12.87H390.19A12.88,12.88,0,0,1,403.07,121.71Zm-22.21,88.07V138.18a11.06,11.06,0,0,0-11.06-11.06H142.21a11.06,11.06,0,0,0-11.07,11.06V323.89A11.05,11.05,0,0,0,142.21,335h227.6a11,11,0,0,0,11.06-11.06V209.78ZM314.25,381H291.43V358.89H220.57V381H197.75a3.31,3.31,0,0,0-3.3,3.31v15.54a3.3,3.3,0,0,0,3.3,3.29h116.5a3.3,3.3,0,0,0,3.3-3.29V384.32A3.31,3.31,0,0,0,314.25,381Z" fill="#34495e"/></g></svg>